<?xml version="1.0" encoding="UTF-8"?>
<!DOCTYPE svg PUBLIC "-//W3C//DTD SVG 1.1//EN" "http://www.w3.org/Graphics/SVG/1.1/DTD/svg11.dtd">
<svg xmlns="http://www.w3.org/2000/svg" version="1.1" width="440px" height="440px" style="shape-rendering:geometricPrecision; text-rendering:geometricPrecision; image-rendering:optimizeQuality; fill-rule:evenodd; clip-rule:evenodd" xmlns:xlink="http://www.w3.org/1999/xlink">
<g><path style="opacity:0.899" fill="#0b0809" d="M 439.5,117.5 C 439.5,120.833 439.5,124.167 439.5,127.5C 431.454,138.559 423.621,149.892 416,161.5C 412.598,162.9 409.764,165.067 407.5,168C 404.823,168.249 402.49,169.249 400.5,171C 408.194,185.26 413.36,200.426 416,216.5C 419.853,241.408 420.853,266.408 419,291.5C 416.702,308.263 409.536,322.43 397.5,334C 388.905,339.313 379.905,341.147 370.5,339.5C 369.564,338.026 368.23,337.026 366.5,336.5C 361.964,339.792 356.964,342.125 351.5,343.5C 349.156,347.029 347.49,350.862 346.5,355C 343.199,355.997 339.866,356.33 336.5,356C 334.996,354.509 334.163,352.676 334,350.5C 332.037,357.006 331.037,363.673 331,370.5C 323.131,374.449 316.797,372.449 312,364.5C 300.062,376.48 285.562,381.313 268.5,379C 263.282,378.244 259.948,375.411 258.5,370.5C 256.587,369.627 254.753,368.627 253,367.5C 251.248,364.328 249.248,361.328 247,358.5C 245.794,354.55 244.794,350.55 244,346.5C 243.481,345.484 242.647,344.818 241.5,344.5C 230.49,346.897 219.323,348.564 208,349.5C 207.667,349.167 207.333,348.833 207,348.5C 190.08,350.873 173.413,350.54 157,347.5C 155.096,348.102 153.263,347.602 151.5,346C 143.275,344.402 135.108,342.569 127,340.5C 126.667,340.833 126.333,341.167 126,341.5C 121.056,339.139 115.889,337.472 110.5,336.5C 107.53,350.291 102.03,362.958 94,374.5C 89.7723,379.087 84.6057,380.587 78.5,379C 75.8636,374.867 75.8636,370.7 78.5,366.5C 77.846,364.885 77.346,363.218 77,361.5C 67.0857,354.792 57.2524,347.959 47.5,341C 27.7029,318.301 22.2029,292.467 31,263.5C 33.1333,258.4 35.6333,253.567 38.5,249C 30.081,227.579 31.081,206.745 41.5,186.5C 35.7638,184.421 29.9305,182.421 24,180.5C 12.746,173.808 4.57937,164.475 -0.5,152.5C -0.5,149.833 -0.5,147.167 -0.5,144.5C 1.5287,142.93 3.86204,141.93 6.5,141.5C 18.0004,147.736 30.0004,148.903 42.5,145C 55.9155,140.301 67.2489,132.634 76.5,122C 81.0002,118.915 85.6669,116.082 90.5,113.5C 91.521,112.998 91.6877,112.332 91,111.5C 77.6073,100.338 72.274,86.0044 75,68.5C 78.2096,64.9722 81.7096,64.8056 85.5,68C 89.3438,70.422 93.0105,73.0887 96.5,76C 102.512,77.7591 108.345,79.9258 114,82.5C 116.761,81.4717 119.594,81.4717 122.5,82.5C 134.734,81.45 145.568,77.1167 155,69.5C 155.333,69.8333 155.667,70.1667 156,70.5C 161.022,69.6231 165.522,67.6231 169.5,64.5C 170.086,64.7093 170.586,65.0426 171,65.5C 176.708,63.4475 182.542,61.7808 188.5,60.5C 189.293,60.9312 190.127,61.2645 191,61.5C 215.265,58.0095 239.432,59.1761 263.5,65C 275.03,68.9557 286.53,73.1224 298,77.5C 301.022,76.7629 304.022,77.0963 307,78.5C 308.938,77.1398 310.604,77.4732 312,79.5C 312.561,78.9781 313.228,78.6448 314,78.5C 319.384,80.8106 324.884,82.8106 330.5,84.5C 337.647,87.5712 344.314,91.4045 350.5,96C 351.866,97.5998 352.866,99.4332 353.5,101.5C 361.813,105.314 369.48,110.147 376.5,116C 381.281,118.775 386.281,121.108 391.5,123C 395.865,123.693 400.031,124.859 404,126.5C 407.333,125.833 410.667,125.167 414,124.5C 414.772,124.645 415.439,124.978 416,125.5C 422.226,123.611 427.726,120.444 432.5,116C 434.922,115.865 437.255,116.365 439.5,117.5 Z"/></g>
<g><path style="opacity:1" fill="#9c7b98" d="M 226.5,70.5 C 214.088,70.1974 201.754,70.8641 189.5,72.5C 188.893,72.3764 188.56,72.0431 188.5,71.5C 200.95,69.4847 213.617,69.1514 226.5,70.5 Z"/></g>
<g><path style="opacity:1" fill="#f4e5ae" d="M 340.5,109.5 C 343.656,110.434 346.989,111.101 350.5,111.5C 351.568,112.434 352.901,112.768 354.5,112.5C 354.433,115.766 356.099,117.266 359.5,117C 363.652,120.424 364.485,124.591 362,129.5C 355.547,137.812 347.38,143.812 337.5,147.5C 333.542,147.251 329.876,147.918 326.5,149.5C 326.565,149.938 326.399,150.272 326,150.5C 322.19,147.678 318.023,145.511 313.5,144C 307.36,136.292 301.36,128.458 295.5,120.5C 293.563,116.567 291.229,112.9 288.5,109.5C 287.595,106.553 286.095,103.887 284,101.5C 283.792,98.002 282.959,94.6687 281.5,91.5C 282.754,89.6663 283.421,87.6663 283.5,85.5C 287.659,86.7416 291.993,87.575 296.5,88C 304.325,95.4976 311.491,103.664 318,112.5C 319.903,114.441 320.736,116.774 320.5,119.5C 323.489,118.917 326.155,117.584 328.5,115.5C 330.632,109.306 334.632,107.306 340.5,109.5 Z"/></g>
<g><path style="opacity:1" fill="#433541" d="M 85.5,82.5 C 86.6675,87.4702 88.3341,92.1369 90.5,96.5C 89.4415,95.3998 88.6082,94.0664 88,92.5C 87.6667,92.8333 87.3333,93.1667 87,93.5C 86.7811,92.062 86.2811,90.7287 85.5,89.5C 84.2031,87.0268 84.2031,84.6934 85.5,82.5 Z"/></g>
<g><path style="opacity:1" fill="#e6b6df" d="M 325.5,107.5 C 324.761,107.631 324.094,107.464 323.5,107C 320.919,103.709 318.252,100.542 315.5,97.5C 313.372,95.5349 311.372,93.3682 309.5,91C 310.009,89.8315 310.842,88.9981 312,88.5C 317.274,90.6092 322.441,92.9425 327.5,95.5C 332.711,95.7179 337.044,98.0512 340.5,102.5C 334.869,102.657 329.869,104.323 325.5,107.5 Z"/></g>
<g><path style="opacity:1" fill="#3d262b" d="M 196.5,92.5 C 206.836,93.135 217.169,94.135 227.5,95.5C 228.086,95.2907 228.586,94.9574 229,94.5C 240.849,96.8541 252.516,99.8541 264,103.5C 264.333,103.167 264.667,102.833 265,102.5C 269.028,105.257 273.528,107.09 278.5,108C 283.569,115.766 288.902,123.266 294.5,130.5C 294.167,130.833 293.833,131.167 293.5,131.5C 278.745,121.29 262.745,113.456 245.5,108C 239.7,106.948 233.867,106.115 228,105.5C 226.284,105.252 224.784,104.585 223.5,103.5C 217.868,104.417 211.701,104.083 205,102.5C 192.736,102.941 180.236,104.108 167.5,106C 150.573,111.047 135.073,118.88 121,129.5C 124.96,124.527 129.46,119.693 134.5,115C 140.823,110.117 147.49,105.784 154.5,102C 168.218,96.9003 182.218,93.7336 196.5,92.5 Z"/></g>
<g><path style="opacity:1" fill="#453743" d="M 315.5,97.5 C 318.252,100.542 320.919,103.709 323.5,107C 324.094,107.464 324.761,107.631 325.5,107.5C 324.998,109.085 323.998,109.585 322.5,109C 318.893,105.889 316.56,102.056 315.5,97.5 Z"/></g>
<g><path style="opacity:1" fill="#8c8363" d="M 350.5,111.5 C 346.989,111.101 343.656,110.434 340.5,109.5C 341.117,109.389 341.617,109.056 342,108.5C 345.089,109.028 347.923,110.028 350.5,111.5 Z"/></g>
<g><path style="opacity:1" fill="#f5c2ee" d="M 256.5,94.5 C 255.144,92.4618 253.477,92.1285 251.5,93.5C 249.833,92.8333 248.167,92.1667 246.5,91.5C 240.219,88.8786 233.552,87.8786 226.5,88.5C 221.746,88.4785 217.079,87.8119 212.5,86.5C 211.274,86.5195 210.274,86.8529 209.5,87.5C 203.167,87.5 196.833,87.5 190.5,87.5C 183.171,87.1292 176.171,88.1292 169.5,90.5C 135.945,100.786 111.945,121.952 97.5,154C 97.6135,155.28 98.2801,156.113 99.5,156.5C 105.746,151.925 111.413,146.591 116.5,140.5C 123.706,134.49 131.373,129.323 139.5,125C 140.167,124 140.833,123 141.5,122C 147.015,121.05 152.015,119.05 156.5,116C 162.262,114.684 167.929,113.184 173.5,111.5C 183.003,111.095 192.336,110.428 201.5,109.5C 201.435,109.062 201.601,108.728 202,108.5C 207.6,109.146 213.1,109.813 218.5,110.5C 222.98,111.521 227.647,112.187 232.5,112.5C 234.629,112.636 236.962,113.303 239.5,114.5C 244.676,117.282 250.342,118.949 256.5,119.5C 274.312,126.408 290.646,135.908 305.5,148C 309.451,148.563 312.451,150.563 314.5,154C 319.104,155.061 323.771,155.727 328.5,156C 332.025,158.189 335.192,161.355 338,165.5C 342.696,167.865 346.029,171.532 348,176.5C 350.988,179.323 353.822,182.323 356.5,185.5C 358.82,193.092 360.82,200.758 362.5,208.5C 362.5,215.167 362.5,221.833 362.5,228.5C 361.957,235.981 360.457,243.314 358,250.5C 354.474,256.203 349.64,260.203 343.5,262.5C 341.833,262.5 340.167,262.5 338.5,262.5C 338.674,260.139 339.007,257.806 339.5,255.5C 340.172,254.733 341.005,254.066 342,253.5C 343.815,248.237 345.315,242.903 346.5,237.5C 348.064,233.326 348.731,228.993 348.5,224.5C 348.5,224.167 348.5,223.833 348.5,223.5C 349.404,222.791 349.737,221.791 349.5,220.5C 347.265,220.205 345.265,220.539 343.5,221.5C 341.68,236.114 337.18,249.781 330,262.5C 326.633,267.36 322.799,271.693 318.5,275.5C 317.351,275.209 316.684,274.376 316.5,273C 318.441,269.784 320.108,266.451 321.5,263C 321.146,259.727 320.479,256.561 319.5,253.5C 320.573,251.653 320.573,249.653 319.5,247.5C 320.833,245.167 320.833,242.833 319.5,240.5C 319.006,233.007 318.006,225.674 316.5,218.5C 315.671,214.875 314.838,211.208 314,207.5C 313.8,205.68 312.966,204.347 311.5,203.5C 310.777,199.263 309.443,195.263 307.5,191.5C 306.423,188.773 305.423,185.94 304.5,183C 304.164,181.97 303.497,181.47 302.5,181.5C 300.93,179.149 300.097,176.482 300,173.5C 297.142,171.573 295.475,168.906 295,165.5C 293.517,162.674 291.517,160.341 289,158.5C 288.083,153.424 285.25,150.091 280.5,148.5C 276.476,151.017 276.642,153.35 281,155.5C 281.333,156.833 281.667,158.167 282,159.5C 283.512,160.257 284.846,161.257 286,162.5C 287.785,166.096 289.285,169.762 290.5,173.5C 283.496,173.773 276.496,174.106 269.5,174.5C 266.703,174.033 265.369,172.367 265.5,169.5C 263.831,166.17 261.498,163.503 258.5,161.5C 256.938,156.439 253.771,152.772 249,150.5C 248.228,150.645 247.561,150.978 247,151.5C 244.305,159.284 239.972,165.951 234,171.5C 232,170.167 230,170.167 228,171.5C 226.203,169.844 224.036,168.844 221.5,168.5C 219.227,169.375 218.227,171.042 218.5,173.5C 222.574,173.767 226.241,175.1 229.5,177.5C 222.442,184.559 216.108,192.226 210.5,200.5C 206.776,207.727 204.442,215.394 203.5,223.5C 198.637,218.27 194.304,212.604 190.5,206.5C 189.613,202.581 188.279,198.915 186.5,195.5C 185.814,194.152 184.814,192.985 183.5,192C 183.929,188.953 183.929,185.786 183.5,182.5C 183.865,180.412 183.865,178.079 183.5,175.5C 184.167,172.833 184.833,170.167 185.5,167.5C 183.898,165.926 181.898,165.259 179.5,165.5C 179.5,166.5 179.5,167.5 179.5,168.5C 178.596,169.209 178.263,170.209 178.5,171.5C 176.639,172.842 174.639,173.842 172.5,174.5C 167.647,176.556 162.813,177.889 158,178.5C 157.442,173.65 156.942,168.983 156.5,164.5C 158.475,163.251 158.809,161.751 157.5,160C 159.638,156.28 162.138,152.78 165,149.5C 165.422,147.645 165.922,145.811 166.5,144C 170.598,138.229 175.098,132.729 180,127.5C 180.432,126.4 179.932,125.733 178.5,125.5C 174.326,126.513 171.159,128.846 169,132.5C 164.18,137.98 160.18,143.98 157,150.5C 153.985,153.683 150.818,156.683 147.5,159.5C 146.614,160.325 146.281,161.325 146.5,162.5C 139.828,167.32 133.495,172.82 127.5,179C 123.812,179.45 120.146,179.283 116.5,178.5C 116.523,176.073 117.023,173.74 118,171.5C 120.871,167.598 123.371,163.432 125.5,159C 124.941,156.812 123.607,156.146 121.5,157C 118.588,159.745 116.254,162.911 114.5,166.5C 111.049,175.056 107.382,183.389 103.5,191.5C 102.069,191.881 101.236,192.881 101,194.5C 100.502,197.482 100.335,200.482 100.5,203.5C 98.1119,214.313 96.1119,225.48 94.5,237C 95.3104,242.751 95.8104,248.584 96,254.5C 97.7441,255.649 97.9108,256.983 96.5,258.5C 98.2598,262.186 99.5931,266.019 100.5,270C 100.167,270.833 99.8333,271.667 99.5,272.5C 92.0037,268.846 85.8371,263.513 81,256.5C 78.7478,251.914 76.0812,247.581 73,243.5C 71.8411,238.531 70.8411,233.531 70,228.5C 67.9098,227.209 66.5764,227.876 66,230.5C 65.4274,234.686 65.594,238.853 66.5,243C 69.5998,252.483 73.9331,261.316 79.5,269.5C 78.3446,270.95 76.8446,271.95 75,272.5C 72.9324,270.438 70.4324,269.272 67.5,269C 66.7433,267.488 65.7433,266.154 64.5,265C 62.0671,263.87 59.7338,262.704 57.5,261.5C 57.7229,258.886 56.5562,257.219 54,256.5C 51.3386,252.511 49.172,248.177 47.5,243.5C 47.405,241.214 46.7384,239.214 45.5,237.5C 43.9892,236.042 42.9892,234.209 42.5,232C 42.3874,230.253 42.7207,228.42 43.5,226.5C 43.7947,224.265 43.4614,222.265 42.5,220.5C 43.2657,212.699 44.7657,205.032 47,197.5C 49.6667,192.167 52.3333,186.833 55,181.5C 56.7255,180.536 58.5588,179.869 60.5,179.5C 59.015,183.77 57.6817,188.103 56.5,192.5C 57.1754,195.178 57.842,197.844 58.5,200.5C 62.1306,201.412 65.7973,201.579 69.5,201C 76.7256,194.949 81.7256,187.449 84.5,178.5C 83.6218,176.252 83.9551,174.085 85.5,172C 82.8176,168.312 79.3176,165.812 75,164.5C 72.9676,164.858 71.1343,165.692 69.5,167C 66.5498,169.743 64.2164,172.91 62.5,176.5C 62.1167,173.548 63.2833,170.881 66,168.5C 67.0086,166.975 67.5086,165.308 67.5,163.5C 68.5,163.5 69.5,163.5 70.5,163.5C 70.5,162.5 70.5,161.5 70.5,160.5C 71.5,160.5 72.5,160.5 73.5,160.5C 73.3505,159.448 73.5172,158.448 74,157.5C 78.4802,154.861 81.6469,151.194 83.5,146.5C 82.448,146.351 81.448,146.517 80.5,147C 70.3176,155.35 61.3176,164.85 53.5,175.5C 50.5,175.5 47.5,175.5 44.5,175.5C 41.7131,174.523 38.7131,174.19 35.5,174.5C 31.9256,173.379 28.5922,171.713 25.5,169.5C 22.7775,166.44 19.7775,163.773 16.5,161.5C 16.5,161.167 16.5,160.833 16.5,160.5C 14.8249,158.544 15.1582,157.211 17.5,156.5C 24.1667,157.833 30.8333,157.833 37.5,156.5C 40.7387,155.51 44.072,154.51 47.5,153.5C 49.9674,153.245 51.9674,152.245 53.5,150.5C 66.7129,144.447 78.0462,135.947 87.5,125C 94.3074,122.431 100.641,119.098 106.5,115C 110.742,114.373 114.409,112.706 117.5,110C 121.625,109.137 125.625,107.97 129.5,106.5C 130.776,105.614 130.776,104.614 129.5,103.5C 128.833,102.833 128.167,102.167 127.5,101.5C 126.893,101.624 126.56,101.957 126.5,102.5C 119.924,104.129 113.257,105.795 106.5,107.5C 100.464,106.233 95.9637,102.899 93,97.5C 92.3292,96.7476 91.4959,96.4142 90.5,96.5C 88.3341,92.1369 86.6675,87.4702 85.5,82.5C 89.2647,81.9902 92.5981,83.3235 95.5,86.5C 119.69,93.856 142.356,90.6894 163.5,77C 171.828,74.9684 180.162,73.1351 188.5,71.5C 188.56,72.0431 188.893,72.3764 189.5,72.5C 201.754,70.8641 214.088,70.1974 226.5,70.5C 227.822,70.67 228.989,70.3366 230,69.5C 237.377,71.1127 244.711,72.7793 252,74.5C 252.414,74.0426 252.914,73.7093 253.5,73.5C 261.789,76.0296 270.122,78.3629 278.5,80.5C 278.496,82.8421 277.663,84.8421 276,86.5C 275.709,91.1893 275.709,95.856 276,100.5C 269.73,98.4879 263.23,96.4879 256.5,94.5 Z"/></g>
<g><path style="opacity:1" fill="#886b84" d="M 126.5,102.5 C 126.56,101.957 126.893,101.624 127.5,101.5C 128.167,102.167 128.833,102.833 129.5,103.5C 130.776,104.614 130.776,105.614 129.5,106.5C 128.488,105.128 127.488,103.795 126.5,102.5 Z"/></g>
<g><path style="opacity:1" fill="#624d5f" d="M 256.5,94.5 C 254.563,95.7058 252.896,95.3725 251.5,93.5C 253.477,92.1285 255.144,92.4618 256.5,94.5 Z"/></g>
<g><path style="opacity:1" fill="#af8aa9" d="M 226.5,89.5 C 226.5,89.1667 226.5,88.8333 226.5,88.5C 233.552,87.8786 240.219,88.8786 246.5,91.5C 239.795,91.1561 233.128,90.4894 226.5,89.5 Z"/></g>
<g><path style="opacity:1" fill="#5c495a" d="M 209.5,87.5 C 210.274,86.8529 211.274,86.5195 212.5,86.5C 217.079,87.8119 221.746,88.4785 226.5,88.5C 226.5,88.8333 226.5,89.1667 226.5,89.5C 220.723,89.4026 215.057,88.7359 209.5,87.5 Z"/></g>
<g><path style="opacity:1" fill="#92738e" d="M 190.5,87.5 C 188.324,88.961 185.991,89.2943 183.5,88.5C 178.89,89.4931 174.223,90.1598 169.5,90.5C 176.171,88.1292 183.171,87.1292 190.5,87.5 Z"/></g>
<g><path style="opacity:1" fill="#a2809d" d="M 201.5,109.5 C 192.336,110.428 183.003,111.095 173.5,111.5C 182.602,109.73 191.935,109.063 201.5,109.5 Z"/></g>
<g><path style="opacity:1" fill="#7c6179" d="M 218.5,110.5 C 222.514,110.334 226.514,110.501 230.5,111C 231.416,111.278 232.082,111.778 232.5,112.5C 227.647,112.187 222.98,111.521 218.5,110.5 Z"/></g>
<g><path style="opacity:1" fill="#423e2f" d="M 288.5,109.5 C 291.229,112.9 293.563,116.567 295.5,120.5C 294.5,120.5 293.5,120.5 292.5,120.5C 290.908,116.971 289.574,113.305 288.5,109.5 Z"/></g>
<g><path style="opacity:1" fill="#a17f9c" d="M 256.5,119.5 C 250.342,118.949 244.676,117.282 239.5,114.5C 239.435,114.062 239.601,113.728 240,113.5C 245.697,115.23 251.197,117.23 256.5,119.5 Z"/></g>
<g><path style="opacity:1" fill="#f5c1ee" d="M 389.5,133.5 C 389.62,134.586 390.287,135.253 391.5,135.5C 400.378,138.061 409.211,138.061 418,135.5C 419.376,135.684 420.209,136.351 420.5,137.5C 415.942,146.717 409.608,154.383 401.5,160.5C 397.576,160.76 393.909,161.76 390.5,163.5C 389.85,163.804 389.183,164.137 388.5,164.5C 384.183,163.521 379.85,163.021 375.5,163C 376.743,164.154 377.743,165.488 378.5,167C 381.864,167.727 385.197,168.56 388.5,169.5C 388.167,170.167 387.833,170.833 387.5,171.5C 388.936,174.138 390.769,176.471 393,178.5C 399.77,192.45 404.27,207.116 406.5,222.5C 405.196,239.719 401.363,256.385 395,272.5C 394.333,273.167 393.667,273.833 393,274.5C 390.13,266.32 386.963,258.32 383.5,250.5C 383.737,249.209 383.404,248.209 382.5,247.5C 382.019,244.478 381.353,241.478 380.5,238.5C 378.929,237.691 377.262,237.357 375.5,237.5C 379.325,259.142 377.658,280.308 370.5,301C 365.775,308.361 359.442,313.861 351.5,317.5C 351.167,317 350.833,316.5 350.5,316C 355.899,308.141 361.233,300.141 366.5,292C 366.043,291.586 365.709,291.086 365.5,290.5C 368.207,288.664 368.874,286.331 367.5,283.5C 366.549,282.674 365.549,282.508 364.5,283C 362.704,287.315 360.537,291.481 358,295.5C 347.866,307.626 338.533,320.292 330,333.5C 325.809,342.209 322.476,351.209 320,360.5C 318.067,357.107 316.9,353.441 316.5,349.5C 319.504,340.078 320.004,330.411 318,320.5C 317.617,319.944 317.117,319.611 316.5,319.5C 315.108,314.429 312.441,310.095 308.5,306.5C 305.576,305.242 302.91,303.576 300.5,301.5C 304.926,297.4 309.259,293.4 313.5,289.5C 319.8,288.002 325.467,285.168 330.5,281C 330.167,280.667 329.833,280.333 329.5,280C 339.077,275.92 347.41,270.087 354.5,262.5C 360.256,258.711 364.256,253.377 366.5,246.5C 367.823,241.948 368.823,237.281 369.5,232.5C 369.077,231.735 368.743,230.902 368.5,230C 370.918,222.471 370.585,214.804 367.5,207C 368.252,206.329 368.586,205.496 368.5,204.5C 368.416,200.163 367.416,196.163 365.5,192.5C 363.284,189.963 362.117,186.963 362,183.5C 358.047,182.101 357.547,179.934 360.5,177C 359.149,174.658 358.816,172.325 359.5,170C 358.368,168.235 357.368,166.402 356.5,164.5C 356.32,160.082 354.654,156.415 351.5,153.5C 351.617,151.516 350.95,149.85 349.5,148.5C 358.836,142.663 366.336,134.996 372,125.5C 377.927,128.081 383.76,130.748 389.5,133.5 Z"/></g>
<g><path style="opacity:1" fill="#feebfc" d="M 193.5,130.5 C 194.397,131.598 195.23,131.598 196,130.5C 199.275,135.254 200.275,140.588 199,146.5C 197.888,149.278 196.055,151.445 193.5,153C 194.089,154.873 193.422,156.54 191.5,158C 189.112,158.303 186.945,159.137 185,160.5C 179.912,159.887 177.412,157.054 177.5,152C 178.179,141.179 183.513,134.013 193.5,130.5 Z"/></g>
<g><path style="opacity:1" fill="#fee8fb" d="M 208.5,136.5 C 210.661,136.826 212.494,137.826 214,139.5C 214.667,140.5 214.667,141.5 214,142.5C 212.308,144.359 210.808,146.359 209.5,148.5C 202.949,150.782 201.115,148.782 204,142.5C 205.639,140.599 207.139,138.599 208.5,136.5 Z"/></g>
<g><path style="opacity:1" fill="#b28dad" d="M 389.5,133.5 C 393.695,134.772 398.029,135.772 402.5,136.5C 404.955,136.257 407.455,136.257 410,136.5C 413.426,135.313 416.926,134.313 420.5,133.5C 421.782,134.958 421.782,136.292 420.5,137.5C 420.209,136.351 419.376,135.684 418,135.5C 409.211,138.061 400.378,138.061 391.5,135.5C 390.287,135.253 389.62,134.586 389.5,133.5 Z"/></g>
<g><path style="opacity:1" fill="#9d936f" d="M 337.5,147.5 C 336.828,148.267 335.995,148.934 335,149.5C 332.17,149.565 329.337,149.565 326.5,149.5C 329.876,147.918 333.542,147.251 337.5,147.5 Z"/></g>
<g><path style="opacity:1" fill="#7f647c" d="M 53.5,150.5 C 51.9674,152.245 49.9674,153.245 47.5,153.5C 48.911,151.461 50.911,150.461 53.5,150.5 Z"/></g>
<g><path style="opacity:1" fill="#3a2429" d="M 343.5,151.5 C 345.935,155.258 348.102,159.258 350,163.5C 350.749,164.635 350.583,165.635 349.5,166.5C 345.417,162.078 341.084,158.078 336.5,154.5C 338.875,153.34 341.208,152.34 343.5,151.5 Z"/></g>
<g><path style="opacity:1" fill="#967792" d="M 17.5,156.5 C 15.1582,157.211 14.8249,158.544 16.5,160.5C 14.9519,160.179 14.2852,159.179 14.5,157.5C 13.5,157.5 12.5,157.5 11.5,157.5C 11.5,156.5 11.5,155.5 11.5,154.5C 13.8984,154.259 15.8984,154.926 17.5,156.5 Z"/></g>
<g><path style="opacity:1" fill="#795f76" d="M 37.5,156.5 C 30.8333,157.833 24.1667,157.833 17.5,156.5C 23.9563,156.403 30.6229,156.403 37.5,156.5 Z"/></g>
<g><path style="opacity:1" fill="#574554" d="M 351.5,153.5 C 354.654,156.415 356.32,160.082 356.5,164.5C 354.435,161.075 352.769,157.408 351.5,153.5 Z"/></g>
<g><path style="opacity:1" fill="#a884a3" d="M 401.5,160.5 C 398.638,162.296 395.471,163.629 392,164.5C 391.235,164.43 390.735,164.097 390.5,163.5C 393.909,161.76 397.576,160.76 401.5,160.5 Z"/></g>
<g><path style="opacity:1" fill="#463744" d="M 16.5,161.5 C 19.7775,163.773 22.7775,166.44 25.5,169.5C 21.566,167.9 18.566,165.233 16.5,161.5 Z"/></g>
<g><path style="opacity:1" fill="#eabeaa" d="M 258.5,172.5 C 258.631,173.376 258.298,174.043 257.5,174.5C 255.684,173.265 254.017,173.265 252.5,174.5C 249.587,173.759 246.587,173.259 243.5,173C 243.043,172.586 242.709,172.086 242.5,171.5C 245.747,168.063 248.58,164.396 251,160.5C 253.751,164.402 256.251,168.402 258.5,172.5 Z"/></g>
<g><path style="opacity:1" fill="#feebfc" d="M 60.5,179.5 C 61.9063,179.027 62.573,178.027 62.5,176.5C 64.2164,172.91 66.5498,169.743 69.5,167C 71.1343,165.692 72.9676,164.858 75,164.5C 79.3176,165.812 82.8176,168.312 85.5,172C 83.9551,174.085 83.6218,176.252 84.5,178.5C 81.7256,187.449 76.7256,194.949 69.5,201C 65.7973,201.579 62.1306,201.412 58.5,200.5C 57.842,197.844 57.1754,195.178 56.5,192.5C 57.6817,188.103 59.015,183.77 60.5,179.5 Z"/></g>
<g><path style="opacity:1" fill="#8e718a" d="M 185.5,167.5 C 184.07,167.579 182.736,167.246 181.5,166.5C 180.818,167.243 180.151,167.909 179.5,168.5C 179.5,167.5 179.5,166.5 179.5,165.5C 181.898,165.259 183.898,165.926 185.5,167.5 Z"/></g>
<g><path style="opacity:1" fill="#e5bda9" d="M 150.5,164.5 C 150.763,169.576 151.097,174.909 151.5,180.5C 146.13,180.392 140.797,180.725 135.5,181.5C 135.351,180.448 135.517,179.448 136,178.5C 138.231,176.471 140.064,174.138 141.5,171.5C 144.823,169.502 147.823,167.169 150.5,164.5 Z"/></g>
<g><path style="opacity:1" fill="#785a6d" d="M 258.5,161.5 C 261.498,163.503 263.831,166.17 265.5,169.5C 262.137,167.799 259.803,165.133 258.5,161.5 Z"/></g>
<g><path style="opacity:1" fill="#fee8fb" d="M 92.5,172.5 C 95.7787,172.305 97.7787,173.805 98.5,177C 97.5584,182.783 94.225,185.283 88.5,184.5C 88.8484,180.121 90.1817,176.121 92.5,172.5 Z"/></g>
<g><path style="opacity:1" fill="#82677f" d="M 178.5,171.5 C 178.67,172.822 178.337,173.989 177.5,175C 175.893,174.981 174.226,174.815 172.5,174.5C 174.639,173.842 176.639,172.842 178.5,171.5 Z"/></g>
<g><path style="opacity:1" fill="#8f718b" d="M 35.5,174.5 C 38.7131,174.19 41.7131,174.523 44.5,175.5C 41.4435,176.16 38.4435,175.827 35.5,174.5 Z"/></g>
<g><path style="opacity:1" fill="#7f675c" d="M 258.5,172.5 C 259.404,173.209 259.737,174.209 259.5,175.5C 256.835,175.217 254.501,174.883 252.5,174.5C 254.017,173.265 255.684,173.265 257.5,174.5C 258.298,174.043 258.631,173.376 258.5,172.5 Z"/></g>
<g><path style="opacity:1" fill="#755c72" d="M 290.5,173.5 C 286.797,175.055 282.797,175.722 278.5,175.5C 275.314,175.498 272.314,175.165 269.5,174.5C 276.496,174.106 283.496,173.773 290.5,173.5 Z"/></g>
<g><path style="opacity:1" fill="#876a83" d="M 44.5,175.5 C 47.5,175.5 50.5,175.5 53.5,175.5C 52.1225,176.234 50.6225,176.901 49,177.5C 47.3775,176.901 45.8775,176.234 44.5,175.5 Z"/></g>
<g><path style="opacity:1" fill="#71596e" d="M 295.5,180.5 C 292.816,178.458 289.816,178.125 286.5,179.5C 288.851,177.797 291.518,177.297 294.5,178C 295.252,178.671 295.586,179.504 295.5,180.5 Z"/></g>
<g><path style="opacity:1" fill="#eec2ad" d="M 251.5,180.5 C 249.833,180.5 248.167,180.5 246.5,180.5C 246.649,181.552 246.483,182.552 246,183.5C 241.826,188.34 237.659,193.173 233.5,198C 234.416,198.278 235.082,198.778 235.5,199.5C 231.167,199.5 226.833,199.5 222.5,199.5C 222.5,201.5 222.5,203.5 222.5,205.5C 225.167,205.5 227.833,205.5 230.5,205.5C 225.138,208.5 225.472,209.834 231.5,209.5C 229.44,210.811 227.274,210.811 225,209.5C 222.586,211.189 220.086,212.689 217.5,214C 216.594,215.699 216.261,217.533 216.5,219.5C 218.5,219.5 220.5,219.5 222.5,219.5C 219.241,220.073 217.408,222.073 217,225.5C 214.776,224.359 213.276,225.026 212.5,227.5C 210.763,224.984 210.097,222.317 210.5,219.5C 213.23,211.71 216.23,204.043 219.5,196.5C 220.822,196.67 221.989,196.337 223,195.5C 226.976,190.023 231.142,184.69 235.5,179.5C 241.029,178.378 246.362,178.712 251.5,180.5 Z"/></g>
<g><path style="opacity:1" fill="#edbce6" d="M 295.5,180.5 C 298.958,187.603 302.125,194.936 305,202.5C 305.783,204.319 305.283,205.652 303.5,206.5C 301.307,204.279 298.64,202.946 295.5,202.5C 293.652,199.307 290.985,197.307 287.5,196.5C 287.719,195.325 287.386,194.325 286.5,193.5C 282.806,189.14 278.806,185.14 274.5,181.5C 275.025,180.808 275.692,180.308 276.5,180C 279.817,179.502 283.15,179.335 286.5,179.5C 289.816,178.125 292.816,178.458 295.5,180.5 Z"/></g>
<g><path style="opacity:1" fill="#624e5f" d="M 183.5,175.5 C 183.865,178.079 183.865,180.412 183.5,182.5C 182.244,180.059 182.244,177.726 183.5,175.5 Z"/></g>
<g><path style="opacity:1" fill="#e9b8e2" d="M 174.5,178.5 C 175.496,178.414 176.329,178.748 177,179.5C 177.458,192.694 181.291,204.694 188.5,215.5C 188,216.5 187.5,217.5 187,218.5C 183.88,215.257 180.547,212.257 177,209.5C 175.283,206.755 174.117,203.755 173.5,200.5C 171.587,199.627 169.753,198.627 168,197.5C 165.368,193.427 162.868,189.26 160.5,185C 160.645,184.228 160.978,183.561 161.5,183C 165.5,182 169.5,181 173.5,180C 174.056,179.617 174.389,179.117 174.5,178.5 Z"/></g>
<g><path style="opacity:1" fill="#f9ebdd" d="M 251.5,180.5 C 252.833,180.5 254.167,180.5 255.5,180.5C 257.655,184.139 259.822,187.806 262,191.5C 267.2,197.313 272.367,202.98 277.5,208.5C 264.478,208.289 251.478,208.622 238.5,209.5C 236.167,209.5 233.833,209.5 231.5,209.5C 225.472,209.834 225.138,208.5 230.5,205.5C 235.519,205.498 240.519,205.165 245.5,204.5C 248.942,204.383 251.942,203.217 254.5,201C 252.148,199.272 249.481,198.439 246.5,198.5C 242.791,199.107 239.125,199.44 235.5,199.5C 235.082,198.778 234.416,198.278 233.5,198C 237.659,193.173 241.826,188.34 246,183.5C 246.483,182.552 246.649,181.552 246.5,180.5C 248.167,180.5 249.833,180.5 251.5,180.5 Z"/></g>
<g><path style="opacity:1" fill="#efc2ad" d="M 290.5,208.5 C 286.167,208.5 281.833,208.5 277.5,208.5C 272.367,202.98 267.2,197.313 262,191.5C 259.822,187.806 257.655,184.139 255.5,180.5C 258.9,179.014 262.233,179.18 265.5,181C 272.991,189.99 281.324,198.157 290.5,205.5C 291.791,206.527 291.791,207.527 290.5,208.5 Z"/></g>
<g><path style="opacity:1" fill="#d0a4ca" d="M 111.5,183.5 C 114.609,183.655 117.609,184.322 120.5,185.5C 117.141,189.271 113.641,192.938 110,196.5C 109.688,192.078 110.188,187.744 111.5,183.5 Z"/></g>
<g><path style="opacity:1" fill="#faecde" d="M 159.5,196.5 C 158.448,198.256 156.781,198.923 154.5,198.5C 150.958,198.187 147.625,198.521 144.5,199.5C 143.566,200.568 143.232,201.901 143.5,203.5C 150.143,204.212 156.809,204.546 163.5,204.5C 164.833,204.5 165.5,205.167 165.5,206.5C 165.611,207.117 165.944,207.617 166.5,208C 151.17,208.5 135.837,208.667 120.5,208.5C 126.735,201.695 132.735,194.695 138.5,187.5C 143.428,186.146 148.428,185.646 153.5,186C 154.866,189.903 156.866,193.403 159.5,196.5 Z"/></g>
<g><path style="opacity:1" fill="#584555" d="M 302.5,181.5 C 303.497,181.47 304.164,181.97 304.5,183C 305.423,185.94 306.423,188.773 307.5,191.5C 306.778,191.082 306.278,190.416 306,189.5C 305.667,189.833 305.333,190.167 305,190.5C 304.604,187.343 303.771,184.343 302.5,181.5 Z"/></g>
<g><path style="opacity:1" fill="#f3c6b1" d="M 138.5,187.5 C 132.735,194.695 126.735,201.695 120.5,208.5C 117.167,208.5 113.833,208.5 110.5,208.5C 112.99,204.189 115.49,199.856 118,195.5C 121.599,192.979 124.766,189.979 127.5,186.5C 131.094,187.426 134.76,187.759 138.5,187.5 Z"/></g>
<g><path style="opacity:1" fill="#83677f" d="M 103.5,191.5 C 102.738,195.671 101.738,199.671 100.5,203.5C 100.335,200.482 100.502,197.482 101,194.5C 101.236,192.881 102.069,191.881 103.5,191.5 Z"/></g>
<g><path style="opacity:1" fill="#57524e" d="M 159.5,196.5 C 160.404,197.209 160.737,198.209 160.5,199.5C 158.265,199.795 156.265,199.461 154.5,198.5C 156.781,198.923 158.448,198.256 159.5,196.5 Z"/></g>
<g><path style="opacity:1" fill="#1d1b1a" d="M 230.5,205.5 C 227.833,205.5 225.167,205.5 222.5,205.5C 222.5,203.5 222.5,201.5 222.5,199.5C 226.833,199.5 231.167,199.5 235.5,199.5C 239.125,199.44 242.791,199.107 246.5,198.5C 249.481,198.439 252.148,199.272 254.5,201C 251.942,203.217 248.942,204.383 245.5,204.5C 240.519,205.165 235.519,205.498 230.5,205.5 Z"/></g>
<g><path style="opacity:1" fill="#7a6077" d="M 365.5,192.5 C 367.416,196.163 368.416,200.163 368.5,204.5C 366.898,200.761 365.898,196.761 365.5,192.5 Z"/></g>
<g><path style="opacity:1" fill="#524150" d="M 186.5,195.5 C 188.279,198.915 189.613,202.581 190.5,206.5C 187.611,203.509 186.278,199.842 186.5,195.5 Z"/></g>
<g><path style="opacity:1" fill="#9e958c" d="M 144.5,199.5 C 144.5,200.5 144.5,201.5 144.5,202.5C 150.882,202.169 157.215,202.835 163.5,204.5C 156.809,204.546 150.143,204.212 143.5,203.5C 143.232,201.901 143.566,200.568 144.5,199.5 Z"/></g>
<g><path style="opacity:1" fill="#695366" d="M 311.5,203.5 C 312.966,204.347 313.8,205.68 314,207.5C 314.838,211.208 315.671,214.875 316.5,218.5C 314.301,213.905 312.635,208.905 311.5,203.5 Z"/></g>
<g><path style="opacity:1" fill="#a79b92" d="M 165.5,206.5 C 167.048,206.821 167.715,207.821 167.5,209.5C 161.299,209.594 154.799,209.928 148,210.5C 135.402,209.842 122.902,209.176 110.5,208.5C 113.833,208.5 117.167,208.5 120.5,208.5C 135.837,208.667 151.17,208.5 166.5,208C 165.944,207.617 165.611,207.117 165.5,206.5 Z"/></g>
<g><path style="opacity:1" fill="#9a8c83" d="M 277.5,208.5 C 281.833,208.5 286.167,208.5 290.5,208.5C 274.49,209.218 258.323,209.885 242,210.5C 240.615,210.486 239.449,210.152 238.5,209.5C 251.478,208.622 264.478,208.289 277.5,208.5 Z"/></g>
<g><path style="opacity:1" fill="#6a2e39" d="M 289.5,217.5 C 276.006,218.331 262.339,218.831 248.5,219C 246.5,219.333 244.5,219.667 242.5,220C 241.944,220.383 241.611,220.883 241.5,221.5C 240.566,220.432 240.232,219.099 240.5,217.5C 256.692,217.03 273.025,217.03 289.5,217.5 Z"/></g>
<g><path style="opacity:1" fill="#c7586d" d="M 289.5,217.5 C 289.833,217.5 290.167,217.5 290.5,217.5C 292.607,218.468 294.941,218.802 297.5,218.5C 297.187,222.042 297.521,225.375 298.5,228.5C 298.878,243.552 293.212,255.719 281.5,265C 273.992,268.948 266.325,268.948 258.5,265C 252.791,257.923 247.291,250.756 242,243.5C 241.163,238.992 240.329,234.492 239.5,230C 239.481,226.97 240.147,224.137 241.5,221.5C 241.611,220.883 241.944,220.383 242.5,220C 244.5,219.667 246.5,219.333 248.5,219C 262.339,218.831 276.006,218.331 289.5,217.5 Z"/></g>
<g><path style="opacity:1" fill="#fbeddf" d="M 222.5,219.5 C 225.5,219.5 228.5,219.5 231.5,219.5C 230.179,229.221 231.846,238.554 236.5,247.5C 240.173,252.914 243.84,258.247 247.5,263.5C 252.515,267.67 257.848,271.337 263.5,274.5C 263.5,274.833 263.5,275.167 263.5,275.5C 262.182,278.258 261.515,281.424 261.5,285C 260.979,289.959 261.979,294.459 264.5,298.5C 259.845,303.659 255.345,308.992 251,314.5C 248.882,318.974 247.382,323.64 246.5,328.5C 245.549,329.919 245.216,331.585 245.5,333.5C 243.265,333.205 241.265,333.539 239.5,334.5C 230.751,334.772 222.084,335.438 213.5,336.5C 211.997,336.835 210.664,336.835 209.5,336.5C 203.355,335.51 197.022,335.177 190.5,335.5C 189.167,335.5 187.833,335.5 186.5,335.5C 180.69,334.51 174.69,334.177 168.5,334.5C 160.032,333.164 151.365,332.331 142.5,332C 136.133,331.449 130.133,329.949 124.5,327.5C 121.845,324.77 118.845,324.104 115.5,325.5C 112.474,324.826 109.474,323.993 106.5,323C 99.6623,319.477 92.9956,315.977 86.5,312.5C 86.5858,311.504 86.2524,310.671 85.5,310C 84.0997,308.562 82.433,307.729 80.5,307.5C 78.7698,305.921 76.9364,304.254 75,302.5C 72.6724,298.839 71.1724,294.839 70.5,290.5C 71.5591,287.014 73.5591,284.347 76.5,282.5C 80.0827,280.724 81.0827,281.557 79.5,285C 81.5219,295.317 87.1886,301.984 96.5,305C 112.26,309.531 124.427,305.031 133,291.5C 135.373,283.428 134.873,275.594 131.5,268C 132.056,267.617 132.389,267.117 132.5,266.5C 135.55,267.926 138.55,269.259 141.5,270.5C 143.32,272.461 145.32,272.794 147.5,271.5C 154.662,271.512 161.329,269.679 167.5,266C 167.941,263.059 169.607,261.226 172.5,260.5C 172.708,257.249 174.208,254.915 177,253.5C 177.434,250.498 178.601,247.831 180.5,245.5C 179.609,242.974 180.109,240.641 182,238.5C 182.034,233.411 182.2,228.411 182.5,223.5C 184.774,223.715 186.941,224.382 189,225.5C 190.92,224.912 192.587,223.912 194,222.5C 196.725,226.307 199.891,229.807 203.5,233C 205.65,234.411 207.984,235.245 210.5,235.5C 210.263,236.791 210.596,237.791 211.5,238.5C 213.263,239.334 214.93,238.834 216.5,237C 215.512,234.833 214.179,233 212.5,231.5C 212.5,230.167 212.5,228.833 212.5,227.5C 213.276,225.026 214.776,224.359 217,225.5C 217.408,222.073 219.241,220.073 222.5,219.5 Z"/></g>
<g><path style="opacity:1" fill="#efc3ae" d="M 311.5,259.5 C 310.342,250.047 308.675,240.714 306.5,231.5C 305.676,228.236 305.342,224.902 305.5,221.5C 305.5,220.5 305.5,219.5 305.5,218.5C 306.833,218.5 308.167,218.5 309.5,218.5C 312.407,232.203 313.074,245.87 311.5,259.5 Z"/></g>
<g><path style="opacity:1" fill="#f5e6d9" d="M 118.5,247.5 C 118.684,250.337 120.018,252.337 122.5,253.5C 124.56,257.028 126.893,260.362 129.5,263.5C 126.604,264.055 124.271,262.889 122.5,260C 117.039,258.141 111.373,256.974 105.5,256.5C 104.918,253.687 103.918,251.02 102.5,248.5C 103.038,246.883 103.371,245.216 103.5,243.5C 103.677,239.766 103.344,236.099 102.5,232.5C 102.667,228.708 103.334,224.708 104.5,220.5C 107.985,219.909 111.652,219.909 115.5,220.5C 115.833,220.833 116.167,221.167 116.5,221.5C 115.149,223.454 114.482,225.621 114.5,228C 114.785,234.808 116.118,241.308 118.5,247.5 Z"/></g>
<g><path style="opacity:1" fill="#7f3745" d="M 290.5,217.5 C 293.167,217.5 295.833,217.5 298.5,217.5C 298.5,221.167 298.5,224.833 298.5,228.5C 297.521,225.375 297.187,222.042 297.5,218.5C 294.941,218.802 292.607,218.468 290.5,217.5 Z"/></g>
<g><path style="opacity:1" fill="#8c6e88" d="M 343.5,221.5 C 345.265,220.539 347.265,220.205 349.5,220.5C 349.737,221.791 349.404,222.791 348.5,223.5C 347.365,221.787 345.698,221.12 343.5,221.5 Z"/></g>
<g><path style="opacity:1" fill="#947590" d="M 362.5,208.5 C 363.249,209.531 363.915,210.698 364.5,212C 363.854,217.6 363.187,223.1 362.5,228.5C 362.5,221.833 362.5,215.167 362.5,208.5 Z"/></g>
<g><path style="opacity:1" fill="#c5586c" d="M 129.5,220.5 C 143.891,220.992 158.557,221.659 173.5,222.5C 175.935,229.372 176.102,236.372 174,243.5C 171.386,250.421 167.553,256.421 162.5,261.5C 155.073,266.452 147.406,266.785 139.5,262.5C 131.452,256.43 125.785,248.597 122.5,239C 122.743,238.098 123.077,237.265 123.5,236.5C 122.575,231.724 122.742,227.057 124,222.5C 125.948,221.891 127.782,221.224 129.5,220.5 Z"/></g>
<g><path style="opacity:1" fill="#715a6e" d="M 42.5,220.5 C 43.4614,222.265 43.7947,224.265 43.5,226.5C 41.3464,224.842 41.0131,222.842 42.5,220.5 Z"/></g>
<g><path style="opacity:1" fill="#584f49" d="M 305.5,221.5 C 305.342,224.902 305.676,228.236 306.5,231.5C 305.833,234.5 305.167,237.5 304.5,240.5C 304.315,235.023 303.982,229.523 303.5,224C 303.639,222.699 304.305,221.866 305.5,221.5 Z"/></g>
<g><path style="opacity:1" fill="#7b3743" d="M 129.5,220.5 C 127.782,221.224 125.948,221.891 124,222.5C 122.742,227.057 122.575,231.724 123.5,236.5C 122.414,236.38 121.747,235.713 121.5,234.5C 121.578,230.655 121.578,226.822 121.5,223C 121.905,222.055 122.572,221.388 123.5,221C 125.473,220.505 127.473,220.338 129.5,220.5 Z"/></g>
<g><path style="opacity:1" fill="#bb70b0" d="M 406.5,222.5 C 407.461,226.335 408.295,230.335 409,234.5C 409.667,251.833 409.667,269.167 409,286.5C 407.637,304.122 400.137,318.455 386.5,329.5C 386.167,329 385.833,328.5 385.5,328C 387.044,326.034 388.21,323.868 389,321.5C 390.733,316.803 391.733,312.136 392,307.5C 392.354,300.214 392.521,293.048 392.5,286C 391.837,284.482 390.837,283.315 389.5,282.5C 388.432,281.566 387.099,281.232 385.5,281.5C 385.5,286.167 385.5,290.833 385.5,295.5C 384.948,300.99 383.115,305.99 380,310.5C 376.5,314.667 373,318.833 369.5,323C 360.107,329.029 350.44,334.529 340.5,339.5C 337.729,336.736 336.896,333.736 338,330.5C 341.114,329.449 342.947,327.283 343.5,324C 347.571,322.028 351.904,320.694 356.5,320C 363.486,316.852 369.486,312.352 374.5,306.5C 375.181,301.982 377.014,297.982 380,294.5C 381.866,285.108 383.033,275.775 383.5,266.5C 383.586,261.476 383.586,256.142 383.5,250.5C 386.963,258.32 390.13,266.32 393,274.5C 393.667,273.833 394.333,273.167 395,272.5C 401.363,256.385 405.196,239.719 406.5,222.5 Z"/></g>
<g><path style="opacity:1" fill="#634e60" d="M 348.5,224.5 C 348.731,228.993 348.064,233.326 346.5,237.5C 345.903,237.265 345.57,236.765 345.5,236C 346.137,231.948 347.137,228.115 348.5,224.5 Z"/></g>
<g><path style="opacity:1" fill="#44403d" d="M 212.5,231.5 C 214.179,233 215.512,234.833 216.5,237C 214.93,238.834 213.263,239.334 211.5,238.5C 213.711,236.505 214.044,234.172 212.5,231.5 Z"/></g>
<g><path style="opacity:1" fill="#8e708a" d="M 45.5,237.5 C 46.7384,239.214 47.405,241.214 47.5,243.5C 45.7202,242.01 45.0535,240.01 45.5,237.5 Z"/></g>
<g><path style="opacity:1" fill="#7d7670" d="M 102.5,232.5 C 103.344,236.099 103.677,239.766 103.5,243.5C 102.717,240.491 102.05,237.324 101.5,234C 101.57,233.235 101.903,232.735 102.5,232.5 Z"/></g>
<g><path style="opacity:1" fill="#675164" d="M 369.5,232.5 C 368.823,237.281 367.823,241.948 366.5,246.5C 365.761,246.631 365.094,246.464 364.5,246C 366.351,241.394 368.017,236.894 369.5,232.5 Z"/></g>
<g><path style="opacity:1" fill="#604c5e" d="M 319.5,240.5 C 320.833,242.833 320.833,245.167 319.5,247.5C 318.933,245.302 318.933,242.969 319.5,240.5 Z"/></g>
<g><path style="opacity:1" fill="#463f3b" d="M 102.5,248.5 C 103.918,251.02 104.918,253.687 105.5,256.5C 105.575,259.206 105.908,261.873 106.5,264.5C 106.5,265.5 106.5,266.5 106.5,267.5C 105.07,265.256 104.07,262.756 103.5,260C 103.833,259.667 104.167,259.333 104.5,259C 103.604,255.572 102.938,252.072 102.5,248.5 Z"/></g>
<g><path style="opacity:1" fill="#857c75" d="M 118.5,247.5 C 120.192,249.205 121.525,251.205 122.5,253.5C 120.018,252.337 118.684,250.337 118.5,247.5 Z"/></g>
<g><path style="opacity:1" fill="#674461" d="M 382.5,247.5 C 383.404,248.209 383.737,249.209 383.5,250.5C 383.586,256.142 383.586,261.476 383.5,266.5C 382.51,260.355 382.177,254.022 382.5,247.5 Z"/></g>
<g><path style="opacity:1" fill="#bc70b2" d="M 40.5,293.5 C 39.5902,295.019 38.7568,296.685 38,298.5C 37.5539,295.657 37.0539,292.824 36.5,290C 37.777,283.895 38.4437,277.729 38.5,271.5C 40.4868,266.265 42.4868,260.931 44.5,255.5C 48.8333,260.833 53.1667,266.167 57.5,271.5C 51.1085,278.252 45.4418,285.585 40.5,293.5 Z"/></g>
<g><path style="opacity:1" fill="#fce1d4" d="M 105.5,256.5 C 111.373,256.974 117.039,258.141 122.5,260C 124.271,262.889 126.604,264.055 129.5,263.5C 131.144,263.81 132.144,264.81 132.5,266.5C 132.389,267.117 132.056,267.617 131.5,268C 134.873,275.594 135.373,283.428 133,291.5C 124.427,305.031 112.26,309.531 96.5,305C 87.1886,301.984 81.5219,295.317 79.5,285C 81.0827,281.557 80.0827,280.724 76.5,282.5C 76.4701,281.503 76.9701,280.836 78,280.5C 81.2722,279.726 84.4389,278.726 87.5,277.5C 89.3977,278.089 91.3977,278.256 93.5,278C 90.9201,279.481 90.0868,281.648 91,284.5C 94.09,292.517 99.7567,296.517 108,296.5C 112.715,295.217 117.215,293.551 121.5,291.5C 126.407,279.411 122.574,271.411 110,267.5C 109.228,267.645 108.561,267.978 108,268.5C 107.79,266.942 107.29,265.609 106.5,264.5C 105.908,261.873 105.575,259.206 105.5,256.5 Z"/></g>
<g><path style="opacity:1" fill="#f5ddd0" d="M 306.5,231.5 C 308.675,240.714 310.342,250.047 311.5,259.5C 312.232,265.634 310.566,270.967 306.5,275.5C 301.588,271.206 296.254,267.873 290.5,265.5C 292.385,263.947 293.385,261.947 293.5,259.5C 296.385,258.455 298.552,256.455 300,253.5C 301.657,249.197 303.157,244.864 304.5,240.5C 305.167,237.5 305.833,234.5 306.5,231.5 Z"/></g>
<g><path style="opacity:1" fill="#81657d" d="M 339.5,255.5 C 339.007,257.806 338.674,260.139 338.5,262.5C 340.167,262.5 341.833,262.5 343.5,262.5C 341.657,263.283 339.657,263.95 337.5,264.5C 337.167,264.167 336.833,263.833 336.5,263.5C 337.009,260.538 338.009,257.871 339.5,255.5 Z"/></g>
<g><path style="opacity:1" fill="#cb97b6" d="M 319.5,253.5 C 320.479,256.561 321.146,259.727 321.5,263C 320.108,266.451 318.441,269.784 316.5,273C 316.684,274.376 317.351,275.209 318.5,275.5C 317.105,277.3 315.439,277.634 313.5,276.5C 315.607,271.982 317.44,267.315 319,262.5C 319.229,259.265 319.396,256.265 319.5,253.5 Z"/></g>
<g><path style="opacity:1" fill="#f4cfc1" d="M 106.5,264.5 C 107.29,265.609 107.79,266.942 108,268.5C 108.561,267.978 109.228,267.645 110,267.5C 122.574,271.411 126.407,279.411 121.5,291.5C 117.215,293.551 112.715,295.217 108,296.5C 99.7567,296.517 94.09,292.517 91,284.5C 90.0868,281.648 90.9201,279.481 93.5,278C 91.3977,278.256 89.3977,278.089 87.5,277.5C 92.0115,275.444 96.6782,275.278 101.5,277C 104.9,282.697 109.9,284.697 116.5,283C 116.957,282.586 117.291,282.086 117.5,281.5C 116.15,280.05 114.484,279.383 112.5,279.5C 112.785,277.712 112.452,276.045 111.5,274.5C 108.596,273.016 106.929,270.683 106.5,267.5C 106.5,266.5 106.5,265.5 106.5,264.5 Z"/></g>
<g><path style="opacity:1" fill="#ba71b0" d="M 354.5,262.5 C 347.41,270.087 339.077,275.92 329.5,280C 329.833,280.333 330.167,280.667 330.5,281C 325.467,285.168 319.8,288.002 313.5,289.5C 315.116,284.717 318.282,281.384 323,279.5C 323.483,278.552 323.649,277.552 323.5,276.5C 328.05,275.803 331.383,273.303 333.5,269C 337.558,268.66 341.558,267.993 345.5,267C 348.394,265.207 351.394,263.707 354.5,262.5 Z"/></g>
<g><path style="opacity:1" fill="#8f867f" d="M 141.5,270.5 C 143.621,270.325 145.621,270.659 147.5,271.5C 145.32,272.794 143.32,272.461 141.5,270.5 Z"/></g>
<g><path style="opacity:1" fill="#161514" d="M 200.5,289.5 C 195.548,290.492 190.548,291.158 185.5,291.5C 180.317,290.306 177.651,286.973 177.5,281.5C 178.554,277.766 180.887,275.933 184.5,276C 185.059,276.725 185.392,277.558 185.5,278.5C 181.248,282.182 181.915,284.682 187.5,286C 192.635,286.697 197.302,285.53 201.5,282.5C 205.203,284.271 209.036,285.604 213,286.5C 215.881,285.972 218.715,285.306 221.5,284.5C 222.244,280.881 222.577,277.215 222.5,273.5C 225.522,273.428 227.688,274.762 229,277.5C 229.056,281.055 228.222,284.389 226.5,287.5C 225.127,287.343 223.793,287.51 222.5,288C 220.324,289.728 217.99,291.228 215.5,292.5C 210.946,292.1 206.446,290.766 202,288.5C 201.235,288.57 200.735,288.903 200.5,289.5 Z"/></g>
<g><path style="opacity:1" fill="#f9d2c4" d="M 290.5,265.5 C 296.254,267.873 301.588,271.206 306.5,275.5C 305.759,278.34 304.092,280.34 301.5,281.5C 297.05,281.421 292.717,282.088 288.5,283.5C 288.624,284.107 288.957,284.44 289.5,284.5C 290.644,286.927 292.644,287.927 295.5,287.5C 298.887,287.036 302.22,286.369 305.5,285.5C 305.579,286.93 305.246,288.264 304.5,289.5C 301.68,291.855 299.346,294.522 297.5,297.5C 290.41,295.03 283.077,294.03 275.5,294.5C 272.816,289.875 271.983,284.875 273,279.5C 273.5,277.667 274.667,276.5 276.5,276C 272.179,275.501 267.846,275.334 263.5,275.5C 263.5,275.167 263.5,274.833 263.5,274.5C 273.684,274.883 282.684,271.883 290.5,265.5 Z"/></g>
<g><path style="opacity:1" fill="#bb70b0" d="M 63.5,289.5 C 60.5026,287.822 57.8359,285.822 55.5,283.5C 58.1204,280.363 60.6204,277.029 63,273.5C 65.7201,274.223 67.8868,275.723 69.5,278C 65.9517,281.042 63.9517,284.876 63.5,289.5 Z"/></g>
<g><path style="opacity:1" fill="#fbe0d2" d="M 263.5,275.5 C 267.846,275.334 272.179,275.501 276.5,276C 274.667,276.5 273.5,277.667 273,279.5C 271.983,284.875 272.816,289.875 275.5,294.5C 274.508,294.328 273.842,294.662 273.5,295.5C 270.574,296.698 267.574,297.698 264.5,298.5C 261.979,294.459 260.979,289.959 261.5,285C 261.515,281.424 262.182,278.258 263.5,275.5 Z"/></g>
<g><path style="opacity:1" fill="#997f76" d="M 301.5,281.5 C 297.571,282.823 293.571,283.823 289.5,284.5C 288.957,284.44 288.624,284.107 288.5,283.5C 292.717,282.088 297.05,281.421 301.5,281.5 Z"/></g>
<g><path style="opacity:1" fill="#4f2f4a" d="M 38.5,271.5 C 38.4437,277.729 37.777,283.895 36.5,290C 37.0539,292.824 37.5539,295.657 38,298.5C 38.7568,296.685 39.5902,295.019 40.5,293.5C 40.666,299.35 38.666,300.516 34.5,297C 35.8333,292.667 35.8333,288.333 34.5,284C 35.7835,279.704 37.1169,275.538 38.5,271.5 Z"/></g>
<g><path style="opacity:1" fill="#f3c0ec" d="M 55.5,283.5 C 57.8359,285.822 60.5026,287.822 63.5,289.5C 63.5941,294.481 64.7608,299.148 67,303.5C 71.8006,307.299 76.3006,311.466 80.5,316C 87.8188,319.308 94.6521,323.475 101,328.5C 101.033,333.666 100.033,338.666 98,343.5C 95.3771,350.615 92.3771,357.615 89,364.5C 88.3333,365.833 87.6667,365.833 87,364.5C 86.874,361.937 86.7073,359.604 86.5,357.5C 85.8294,351.104 84.1627,345.104 81.5,339.5C 80.5373,335.158 78.204,331.658 74.5,329C 73.5509,328.383 72.7175,328.549 72,329.5C 71.3333,330.833 71.3333,332.167 72,333.5C 73.7974,337.421 75.2974,341.421 76.5,345.5C 75.3684,346.354 74.035,346.354 72.5,345.5C 71.448,345.649 70.448,345.483 69.5,345C 64.167,341.269 59.167,337.102 54.5,332.5C 53.6143,331.675 53.281,330.675 53.5,329.5C 52.5,329.5 51.5,329.5 50.5,329.5C 50.3426,326.682 49.0092,324.682 46.5,323.5C 45.042,318.214 43.7087,312.881 42.5,307.5C 44.5372,301.094 47.3705,295.094 51,289.5C 51.49,288.207 51.6567,286.873 51.5,285.5C 53.3797,285.771 54.713,285.104 55.5,283.5 Z"/></g>
<g><path style="opacity:1" fill="#898179" d="M 200.5,289.5 C 198.974,291.13 196.974,291.963 194.5,292C 191.304,292.805 188.304,292.638 185.5,291.5C 190.548,291.158 195.548,290.492 200.5,289.5 Z"/></g>
<g><path style="opacity:1" fill="#6e4168" d="M 389.5,282.5 C 388.5,282.5 387.5,282.5 386.5,282.5C 386.818,287.032 386.485,291.366 385.5,295.5C 385.5,290.833 385.5,286.167 385.5,281.5C 387.099,281.232 388.432,281.566 389.5,282.5 Z"/></g>
<g><path style="opacity:1" fill="#72625c" d="M 273.5,295.5 C 273.842,294.662 274.508,294.328 275.5,294.5C 283.077,294.03 290.41,295.03 297.5,297.5C 297.083,298.124 296.416,298.457 295.5,298.5C 288.468,295.897 281.135,294.897 273.5,295.5 Z"/></g>
<g><path style="opacity:1" fill="#d34e5c" d="M 270.5,301.5 C 276.714,301.228 282.881,301.562 289,302.5C 311.675,312.219 318.008,328.552 308,351.5C 301.7,360.813 293.033,366.813 282,369.5C 274.339,367.777 267.172,364.944 260.5,361C 250.553,345.989 249.886,330.489 258.5,314.5C 263.051,310.584 267.051,306.251 270.5,301.5 Z"/></g>
<g><path style="opacity:1" fill="#6f6862" d="M 80.5,307.5 C 82.433,307.729 84.0997,308.562 85.5,310C 86.2524,310.671 86.5858,311.504 86.5,312.5C 83.8851,311.55 81.8851,309.883 80.5,307.5 Z"/></g>
<g><path style="opacity:1" fill="#6a5467" d="M 42.5,307.5 C 43.7087,312.881 45.042,318.214 46.5,323.5C 45.6851,322.571 44.8518,321.571 44,320.5C 43.5946,316.734 42.7613,313.067 41.5,309.5C 41.5427,308.584 41.8761,307.917 42.5,307.5 Z"/></g>
<g><path style="opacity:1" fill="#9c938a" d="M 115.5,325.5 C 118.845,324.104 121.845,324.77 124.5,327.5C 121.426,327.127 118.426,326.461 115.5,325.5 Z"/></g>
<g><path style="opacity:1" fill="#100a0a" d="M 261.5,326.5 C 265.202,327.586 269.036,328.252 273,328.5C 280.687,328.227 288.187,327.561 295.5,326.5C 299.525,326.184 303.525,326.017 307.5,326C 309.908,329.208 309.908,332.375 307.5,335.5C 300.894,340.902 293.227,343.568 284.5,343.5C 275.314,343.117 267.814,339.45 262,332.5C 260.458,330.435 260.291,328.435 261.5,326.5 Z"/></g>
<g><path style="opacity:1" fill="#5e2027" d="M 261.5,326.5 C 272.578,327.23 283.912,327.23 295.5,326.5C 288.187,327.561 280.687,328.227 273,328.5C 269.036,328.252 265.202,327.586 261.5,326.5 Z"/></g>
<g><path style="opacity:1" fill="#e3e3e3" d="M 298.5,334.5 C 296.574,336.293 294.241,337.293 291.5,337.5C 290.904,336.065 290.904,334.398 291.5,332.5C 294.388,331.99 296.721,332.656 298.5,334.5 Z"/></g>
<g><path style="opacity:1" fill="#827b74" d="M 246.5,328.5 C 246.5,330.5 246.5,332.5 246.5,334.5C 244.167,334.5 241.833,334.5 239.5,334.5C 241.265,333.539 243.265,333.205 245.5,333.5C 245.216,331.585 245.549,329.919 246.5,328.5 Z"/></g>
<g><path style="opacity:1" fill="#d1d1d1" d="M 280.5,335.5 C 280.179,337.048 279.179,337.715 277.5,337.5C 275.355,336.346 273.355,335.013 271.5,333.5C 275.042,331.922 278.042,332.588 280.5,335.5 Z"/></g>
<g><path style="opacity:1" fill="#726b65" d="M 168.5,334.5 C 174.69,334.177 180.69,334.51 186.5,335.5C 185.883,335.611 185.383,335.944 185,336.5C 179.4,335.854 173.9,335.187 168.5,334.5 Z"/></g>
<g><path style="opacity:1" fill="#a49b92" d="M 190.5,335.5 C 197.022,335.177 203.355,335.51 209.5,336.5C 203.123,337.138 196.79,336.805 190.5,335.5 Z"/></g>
<g><path style="opacity:1" fill="#8a827b" d="M 239.5,334.5 C 232.85,335.854 226.017,336.854 219,337.5C 217.109,337.313 215.275,336.979 213.5,336.5C 222.084,335.438 230.751,334.772 239.5,334.5 Z"/></g>
<g><path style="opacity:1" fill="#9d9d9d" d="M 298.5,334.5 C 296.721,332.656 294.388,331.99 291.5,332.5C 290.904,334.398 290.904,336.065 291.5,337.5C 290.292,338.782 288.958,338.782 287.5,337.5C 289.571,336.024 290.571,334.024 290.5,331.5C 293.85,331.335 297.183,331.502 300.5,332C 299.934,332.995 299.267,333.828 298.5,334.5 Z"/></g>
<g><path style="opacity:1" fill="#31272f" d="M 316.5,319.5 C 317.117,319.611 317.617,319.944 318,320.5C 320.004,330.411 319.504,340.078 316.5,349.5C 316.461,348.417 316.127,347.417 315.5,346.5C 316.137,341.04 317.137,335.54 318.5,330C 317.591,326.534 316.924,323.034 316.5,319.5 Z"/></g>
<g><path style="opacity:1" fill="#4b4b4b" d="M 280.5,335.5 C 288.371,336.976 288.205,338.309 280,339.5C 279.005,338.934 278.172,338.267 277.5,337.5C 279.179,337.715 280.179,337.048 280.5,335.5 Z"/></g>
<g><path style="opacity:1" fill="#71596e" d="M 72.5,345.5 C 74.035,346.354 75.3684,346.354 76.5,345.5C 77.0431,345.56 77.3764,345.893 77.5,346.5C 75.1369,349.461 73.4702,349.127 72.5,345.5 Z"/></g>
<g><path style="opacity:1" fill="#5b4859" d="M 81.5,339.5 C 84.1627,345.104 85.8294,351.104 86.5,357.5C 84.3387,351.725 82.672,345.725 81.5,339.5 Z"/></g>
</svg>
